<mxfile host="app.diagrams.net" modified="2023-09-18T17:16:25.250Z" agent="Mozilla/5.0 (Windows NT 10.0; Win64; x64; rv:109.0) Gecko/20100101 Firefox/117.0" version="21.7.5" etag="6wd_3o4QuJh56BwVS-i_" type="github">
  <diagram name="Page-1" id="wc3u8y9H1mLVJ8F3BUaS">
    <mxGraphModel>
      <root>
        <mxCell id="0" />
        <mxCell id="1" parent="0" />
      </root>
    </mxGraphModel>
  </diagram>
</mxfile>
